<?xml version="1.0" encoding="UTF-8"?>
<!DOCTYPE svg PUBLIC "-//W3C//DTD SVG 1.1//EN" "http://www.w3.org/Graphics/SVG/1.1/DTD/svg11.dtd">
<!-- Creator: CorelDRAW 2021 (64-Bit) -->
<svg xmlns="http://www.w3.org/2000/svg" xml:space="preserve" width="100%" height="100%" version="1.1" style="shape-rendering:geometricPrecision; text-rendering:geometricPrecision; image-rendering:optimizeQuality; fill-rule:evenodd; clip-rule:evenodd"
viewBox="0 0 2319.18 2165.9"
 xmlns:xlink="http://www.w3.org/1999/xlink"
 xmlns:xodm="http://www.corel.com/coreldraw/odm/2003">
 <defs>
  <style type="text/css">
   <![CDATA[
    .str0 {stroke:#727271;stroke-width:20;stroke-miterlimit:22.9256}
    .fil1 {fill:#FEFEFE;fill-rule:nonzero}
    .fil0 {fill:url(#id0)}
   ]]>
  </style>
  <linearGradient id="id0" gradientUnits="userSpaceOnUse" x1="1159.59" y1="10" x2="1159.62" y2="2155.9">
   <stop offset="0" style="stop-opacity:1; stop-color:#5A5954"/>
   <stop offset="1" style="stop-opacity:1; stop-color:#050505"/>
  </linearGradient>
 </defs>
 <g id="Слой_x0020_1">
  <metadata id="CorelCorpID_0Corel-Layer"/>
  <g id="_2026302269760">
   <rect class="fil0 str0" x="10" y="9.99" width="2299.18" height="2145.9" rx="337.22" ry="337.22"/>
   <path class="fil1" d="M1124.29 423.45c127.01,0 226.24,45.5 297.99,136.48 85.19,107.48 127.93,286.09 127.93,535.23 0,248.84 -43.05,427.76 -128.84,536.46 -71.14,89.76 -170.07,134.65 -297.08,134.65 -127.63,0 -230.52,-49.16 -308.68,-147.48 -78.17,-98.31 -117.25,-273.87 -117.25,-526.07 0,-247.62 43.05,-425.92 128.85,-534.62 71.14,-89.76 170.06,-134.65 297.08,-134.65zm0 208.84c-29.92,0 -56.79,9.77 -80,29.32 -23.51,19.23 -41.83,54.04 -54.65,104.42 -17.1,65.03 -25.65,174.95 -25.65,329.13 0,154.5 7.64,260.45 22.9,318.15 15.27,57.71 34.5,96.18 57.71,115.41 23.2,19.24 49.77,28.7 79.69,28.7 29.92,0 56.79,-9.77 80.3,-29.31 23.2,-19.23 41.52,-54.04 54.35,-104.42 17.09,-64.42 25.64,-174.03 25.64,-328.53 0,-154.18 -7.63,-260.13 -22.9,-317.84 -15.26,-57.7 -34.5,-96.48 -57.7,-115.71 -23.21,-19.55 -49.77,-29.32 -79.69,-29.32z"/>
  </g>
 </g>
</svg>
