<?xml version="1.0" encoding="UTF-8"?>
<!DOCTYPE svg PUBLIC "-//W3C//DTD SVG 1.1//EN" "http://www.w3.org/Graphics/SVG/1.1/DTD/svg11.dtd">
<!-- Creator: CorelDRAW 2021 (64-Bit) -->
<svg xmlns="http://www.w3.org/2000/svg" xml:space="preserve" width="100%" height="100%" version="1.1" style="shape-rendering:geometricPrecision; text-rendering:geometricPrecision; image-rendering:optimizeQuality; fill-rule:evenodd; clip-rule:evenodd"
viewBox="0 0 2319.18 2165.9"
 xmlns:xlink="http://www.w3.org/1999/xlink"
 xmlns:xodm="http://www.corel.com/coreldraw/odm/2003">
 <defs>
  <style type="text/css">
   <![CDATA[
    .str0 {stroke:#727271;stroke-width:20;stroke-miterlimit:22.9256}
    .fil1 {fill:#FEFEFE;fill-rule:nonzero}
    .fil0 {fill:url(#id0)}
   ]]>
  </style>
  <linearGradient id="id0" gradientUnits="userSpaceOnUse" x1="1159.59" y1="10" x2="1159.62" y2="2155.9">
   <stop offset="0" style="stop-opacity:1; stop-color:#5A5954"/>
   <stop offset="1" style="stop-opacity:1; stop-color:#050505"/>
  </linearGradient>
 </defs>
 <g id="Слой_x0020_1">
  <metadata id="CorelCorpID_0Corel-Layer"/>
  <g id="_2026374470304">
   <rect class="fil0 str0" x="10" y="9.99" width="2299.18" height="2145.9" rx="337.22" ry="337.22"/>
   <path class="fil1" d="M1548.38 1509.79l0 232.66 -881.16 0c9.46,-88.54 38.16,-172.2 85.79,-251.28 47.63,-79.08 141.98,-184.11 282.43,-315.09 113.27,-105.65 182.58,-177.4 208.23,-214.95 34.5,-51.91 51.9,-103.2 51.9,-154.19 0,-56.18 -14.96,-99.23 -45.18,-129.46 -29.93,-30.22 -71.45,-45.19 -124.27,-45.19 -52.52,0 -94.04,15.88 -125.18,47.63 -30.84,31.45 -48.55,83.97 -53.43,157.55l-250.98 -25.03c14.96,-138.62 61.67,-238.16 140.45,-298.61 78.77,-60.15 177.09,-90.38 295.25,-90.38 129.45,0 231.13,35.12 305.32,105.03 73.89,69.92 110.83,156.94 110.83,261.06 0,59.23 -10.68,115.41 -31.75,169.14 -21.07,53.44 -54.65,109.31 -100.76,167.93 -30.23,39.08 -85.49,94.96 -164.87,167.93 -79.69,72.97 -130.07,121.21 -151.14,145.33 -21.37,23.82 -38.47,47.33 -51.6,69.92l500.12 0z"/>
  </g>
 </g>
</svg>
