<?xml version="1.0" encoding="UTF-8"?>
<!DOCTYPE svg PUBLIC "-//W3C//DTD SVG 1.1//EN" "http://www.w3.org/Graphics/SVG/1.1/DTD/svg11.dtd">
<!-- Creator: CorelDRAW 2021 (64-Bit) -->
<svg xmlns="http://www.w3.org/2000/svg" xml:space="preserve" width="100%" height="100%" version="1.1" style="shape-rendering:geometricPrecision; text-rendering:geometricPrecision; image-rendering:optimizeQuality; fill-rule:evenodd; clip-rule:evenodd"
viewBox="0 0 2319.18 2165.9"
 xmlns:xlink="http://www.w3.org/1999/xlink"
 xmlns:xodm="http://www.corel.com/coreldraw/odm/2003">
 <defs>
  <style type="text/css">
   <![CDATA[
    .str0 {stroke:#727271;stroke-width:20;stroke-miterlimit:22.9256}
    .fil1 {fill:#FEFEFE;fill-rule:nonzero}
    .fil0 {fill:url(#id0)}
   ]]>
  </style>
  <linearGradient id="id0" gradientUnits="userSpaceOnUse" x1="1159.59" y1="10" x2="1159.62" y2="2155.9">
   <stop offset="0" style="stop-opacity:1; stop-color:#5A5954"/>
   <stop offset="1" style="stop-opacity:1; stop-color:#050505"/>
  </linearGradient>
 </defs>
 <g id="Слой_x0020_1">
  <metadata id="CorelCorpID_0Corel-Layer"/>
  <g id="_2026374428304">
   <rect class="fil0 str0" x="10" y="9.99" width="2299.18" height="2145.9" rx="337.22" ry="337.22"/>
   <path class="fil1" d="M691.03 1394.69l243.65 -29.62c7.63,62.29 28.4,109.92 62.29,142.89 33.89,32.98 74.8,49.46 122.74,49.46 51.6,0 94.95,-19.84 130.37,-59.23 35.11,-39.39 52.82,-92.51 52.82,-159.68 0,-63.2 -16.79,-113.58 -50.68,-150.53 -33.89,-36.94 -75.11,-55.57 -123.96,-55.57 -32.06,0 -70.23,6.42 -114.8,18.93l27.78 -203.95c67.78,1.83 119.38,-13.13 155.1,-44.58 35.73,-31.14 53.44,-72.97 53.44,-125.18 0,-44.27 -13.13,-79.39 -39.39,-105.95 -26.26,-26.26 -61.07,-39.39 -104.73,-39.39 -43.05,0 -79.69,14.97 -109.91,44.89 -30.54,29.92 -48.86,73.58 -55.57,130.98l-230.83 -39.39c16.19,-79.99 40.31,-143.8 72.98,-191.74 32.36,-47.63 77.85,-85.18 135.86,-112.66 58.02,-27.18 123.35,-40.92 195.41,-40.92 123.35,0 222.28,39.39 296.78,118.47 61.37,64.73 92.2,138 92.2,219.53 0,115.41 -62.89,207.92 -188.99,276.62 75.11,16.18 134.95,52.21 180.14,108.39 44.88,56.18 67.48,123.96 67.48,203.34 0,115.11 -42.14,213.43 -126.1,294.64 -83.97,81.22 -188.39,121.83 -313.57,121.83 -118.47,0 -216.78,-34.2 -294.64,-102.9 -78.16,-68.39 -123.35,-157.85 -135.87,-268.68z"/>
  </g>
 </g>
</svg>
