<?xml version="1.0" encoding="UTF-8"?>
<!DOCTYPE svg PUBLIC "-//W3C//DTD SVG 1.1//EN" "http://www.w3.org/Graphics/SVG/1.1/DTD/svg11.dtd">
<!-- Creator: CorelDRAW 2021 (64-Bit) -->
<svg xmlns="http://www.w3.org/2000/svg" xml:space="preserve" width="100%" height="100%" version="1.1" style="shape-rendering:geometricPrecision; text-rendering:geometricPrecision; image-rendering:optimizeQuality; fill-rule:evenodd; clip-rule:evenodd"
viewBox="0 0 2319.18 2165.9"
 xmlns:xlink="http://www.w3.org/1999/xlink"
 xmlns:xodm="http://www.corel.com/coreldraw/odm/2003">
 <defs>
  <style type="text/css">
   <![CDATA[
    .str0 {stroke:#727271;stroke-width:20;stroke-miterlimit:22.9256}
    .fil1 {fill:#FEFEFE;fill-rule:nonzero}
    .fil0 {fill:url(#id0)}
   ]]>
  </style>
  <linearGradient id="id0" gradientUnits="userSpaceOnUse" x1="1159.59" y1="10" x2="1159.62" y2="2155.9">
   <stop offset="0" style="stop-opacity:1; stop-color:#5A5954"/>
   <stop offset="1" style="stop-opacity:1; stop-color:#050505"/>
  </linearGradient>
 </defs>
 <g id="Слой_x0020_1">
  <metadata id="CorelCorpID_0Corel-Layer"/>
  <g id="_2026297121632">
   <rect class="fil0 str0" x="10" y="9.99" width="2299.18" height="2145.9" rx="337.22" ry="337.22"/>
   <path class="fil1" d="M915.14 1033.18c-64.73,-27.48 -112.05,-65.03 -141.36,-113.27 -29.62,-47.94 -44.28,-100.76 -44.28,-157.85 0,-98.01 34.2,-178.92 102.29,-242.74 68.08,-63.81 165.18,-95.87 290.67,-95.87 124.57,0 221.05,32.06 289.75,95.87 68.7,63.82 103.2,144.73 103.2,242.74 0,60.76 -15.88,114.8 -47.63,162.43 -31.45,47.32 -76.03,83.66 -133.43,108.69 72.97,29.31 128.24,72.06 166.4,128.24 37.86,56.48 56.79,121.21 56.79,194.8 0,121.51 -38.47,220.13 -115.72,296.16 -76.94,76.03 -179.53,113.89 -307.76,113.89 -119.08,0 -218,-31.45 -297.39,-94.35 -93.43,-73.89 -140.14,-175.87 -140.14,-305.02 0,-71.14 17.71,-136.48 52.82,-196.02 35.11,-59.53 90.38,-105.33 165.79,-137.7zm52.52 -252.8c0,50.07 14.04,89.46 42.13,117.55 28.4,28.09 65.95,42.13 112.67,42.13 47.63,0 85.49,-14.35 113.88,-42.75 28.4,-28.39 42.75,-67.78 42.75,-117.85 0,-47.32 -14.05,-85.19 -42.14,-113.58 -28.39,-28.4 -65.64,-42.75 -111.75,-42.75 -48.24,0 -86.4,14.35 -114.8,43.06 -28.39,28.7 -42.74,66.86 -42.74,114.19zm-23.82 562.4c0,69.92 17.71,124.27 53.13,163.35 35.42,39.08 79.38,58.62 132.2,58.62 51.91,0 94.65,-18.93 128.54,-56.48 33.89,-37.56 50.69,-91.91 50.69,-162.74 0,-61.98 -17.1,-111.75 -51.6,-149.3 -34.5,-37.56 -78.16,-56.49 -130.99,-56.49 -61.37,0 -106.86,21.37 -137.09,64.12 -29.92,42.74 -44.88,88.85 -44.88,138.92z"/>
  </g>
 </g>
</svg>
