<?xml version="1.0" encoding="UTF-8"?>
<!DOCTYPE svg PUBLIC "-//W3C//DTD SVG 1.1//EN" "http://www.w3.org/Graphics/SVG/1.1/DTD/svg11.dtd">
<!-- Creator: CorelDRAW 2021 (64-Bit) -->
<svg xmlns="http://www.w3.org/2000/svg" xml:space="preserve" width="100%" height="100%" version="1.1" style="shape-rendering:geometricPrecision; text-rendering:geometricPrecision; image-rendering:optimizeQuality; fill-rule:evenodd; clip-rule:evenodd"
viewBox="0 0 2319.18 2165.9"
 xmlns:xlink="http://www.w3.org/1999/xlink"
 xmlns:xodm="http://www.corel.com/coreldraw/odm/2003">
 <defs>
  <style type="text/css">
   <![CDATA[
    .str0 {stroke:#727271;stroke-width:20;stroke-miterlimit:22.9256}
    .fil1 {fill:#FEFEFE;fill-rule:nonzero}
    .fil0 {fill:url(#id0)}
   ]]>
  </style>
  <linearGradient id="id0" gradientUnits="userSpaceOnUse" x1="1159.59" y1="10" x2="1159.62" y2="2155.9">
   <stop offset="0" style="stop-opacity:1; stop-color:#5A5954"/>
   <stop offset="1" style="stop-opacity:1; stop-color:#050505"/>
  </linearGradient>
 </defs>
 <g id="Слой_x0020_1">
  <metadata id="CorelCorpID_0Corel-Layer"/>
  <g id="_2026094400544">
   <rect class="fil0 str0" x="10" y="9.99" width="2299.18" height="2145.9" rx="337.22" ry="337.22"/>
   <path class="fil1" d="M707.52 1437.74l243.65 -26.87c5.8,49.77 21.37,86.71 46.1,110.53 24.73,24.12 57.71,36.02 98.32,36.02 51.6,0 95.26,-24.12 131.29,-72.05 36.02,-47.94 58.92,-147.47 69,-298 -63.2,73.28 -141.98,109.92 -236.93,109.92 -102.9,0 -192.05,-39.69 -266.85,-119.38 -74.81,-79.69 -112.06,-183.2 -112.06,-310.82 0,-133.12 39.39,-240.29 118.47,-321.51 79.08,-81.52 179.83,-122.13 301.96,-122.13 132.82,0 242.12,51.6 327.31,154.5 85.18,103.2 127.93,272.65 127.93,508.97 0,239.98 -44.27,413.41 -132.82,519.66 -88.54,106.56 -203.95,159.69 -346.23,159.69 -102.29,0 -184.72,-27.48 -247.93,-82.44 -62.89,-54.65 -103.5,-136.79 -121.21,-246.09zm566.07 -550.2c0,-80.91 -18.62,-143.8 -55.87,-188.38 -36.95,-44.58 -80,-66.87 -128.85,-66.87 -46.41,0 -84.88,18.32 -115.41,54.96 -30.84,36.64 -46.11,96.48 -46.11,179.53 0,84.58 16.8,146.56 50.08,186.25 33.28,39.39 74.8,59.23 124.87,59.23 48.25,0 88.85,-18.93 121.83,-57.09 32.97,-38.17 49.46,-94.04 49.46,-167.63z"/>
  </g>
 </g>
</svg>
