<?xml version="1.0" encoding="UTF-8"?>
<!DOCTYPE svg PUBLIC "-//W3C//DTD SVG 1.1//EN" "http://www.w3.org/Graphics/SVG/1.1/DTD/svg11.dtd">
<!-- Creator: CorelDRAW 2021 (64-Bit) -->
<svg xmlns="http://www.w3.org/2000/svg" xml:space="preserve" width="100%" height="100%" version="1.1" style="shape-rendering:geometricPrecision; text-rendering:geometricPrecision; image-rendering:optimizeQuality; fill-rule:evenodd; clip-rule:evenodd"
viewBox="0 0 6687.5 2165.9"
 xmlns:xlink="http://www.w3.org/1999/xlink"
 xmlns:xodm="http://www.corel.com/coreldraw/odm/2003">
 <defs>
  <style type="text/css">
   <![CDATA[
    .str0 {stroke:#727271;stroke-width:20;stroke-miterlimit:22.9256}
    .fil1 {fill:#FEFEFE;fill-rule:nonzero}
    .fil0 {fill:url(#id0)}
   ]]>
  </style>
  <linearGradient id="id0" gradientUnits="userSpaceOnUse" x1="3729.07" y1="10" x2="3729.41" y2="2155.9">
   <stop offset="0" style="stop-opacity:1; stop-color:#A61E1E"/>
   <stop offset="1" style="stop-opacity:1; stop-color:#470404"/>
  </linearGradient>
 </defs>
 <g id="Слой_x0020_1">
  <metadata id="CorelCorpID_0Corel-Layer"/>
  <g id="_2026302302976">
   <rect class="fil0 str0" x="10" y="9.99" width="6667.5" height="2145.9" rx="977.93" ry="337.22"/>
   <polygon class="fil1" points="555.94,757.55 1073.11,757.55 1073.11,1408.34 941.32,1408.34 941.32,867.53 687.73,867.53 687.73,1408.34 555.94,1408.34 "/>
   <path id="_1" class="fil1" d="M1207.48 1408.34l0 -650.79 210.72 0c79.83,0 131.79,3.18 156.03,9.7 37.27,9.85 68.47,31.05 93.62,63.77 25.15,32.73 37.72,74.99 37.72,126.8 0,39.99 -7.27,73.47 -21.66,100.74 -14.55,27.26 -32.88,48.62 -55.14,64.23 -22.27,15.45 -45,25.75 -68.02,30.75 -31.36,6.21 -76.65,9.39 -136.04,9.39l-85.44 0 0 245.41 -131.79 0zm131.79 -540.81l0 185.42 71.66 0c51.65,0 86.04,-3.48 103.46,-10.3 17.42,-6.82 31.06,-17.42 40.9,-32.11 9.85,-14.55 14.85,-31.36 14.85,-50.75 0,-23.79 -6.97,-43.33 -20.75,-58.78 -13.94,-15.45 -31.36,-25.15 -52.72,-29.08 -15.6,-2.88 -46.96,-4.4 -94.23,-4.4l-63.17 0z"/>
   <path id="_2" class="fil1" d="M1774.49 1086.89c0,-66.36 10,-122.1 29.85,-167.25 14.69,-33.17 34.99,-63.01 60.59,-89.37 25.6,-26.36 53.63,-45.9 84.08,-58.78 40.59,-17.12 87.4,-25.75 140.42,-25.75 96.05,0 172.7,29.84 230.42,89.37 57.56,59.69 86.34,142.55 86.34,248.75 0,105.28 -28.63,187.69 -85.74,247.07 -57.11,59.53 -133.61,89.23 -229.2,89.23 -96.8,0 -173.9,-29.54 -231.01,-88.78 -57.12,-59.08 -85.75,-140.57 -85.75,-244.49zm135.43 -4.4c0,73.78 17.12,129.67 51.21,167.85 34.08,38.02 77.4,57.11 129.82,57.11 52.57,0 95.59,-18.94 129.37,-56.66 33.63,-37.87 50.44,-94.52 50.44,-170.12 0,-74.68 -16.36,-130.43 -49.23,-167.09 -32.72,-36.81 -76.2,-55.14 -130.58,-55.14 -54.23,0 -98.01,18.64 -131.19,55.75 -33.17,37.27 -49.84,93.32 -49.84,168.3z"/>
   <path id="_3" class="fil1" d="M2508.75 757.55l260.26 0c51.65,0 89.98,2.12 115.28,6.37 25.45,4.39 48.02,13.33 68.01,26.81 20,13.63 36.66,31.66 49.99,54.23 13.34,22.57 20,48.02 20,76.05 0,30.29 -8.18,58.32 -24.54,83.62 -16.36,25.45 -38.63,44.38 -66.65,57.11 39.53,11.66 69.83,31.36 91.19,59.23 21.21,27.87 31.81,60.59 31.81,98.31 0,29.7 -6.81,58.48 -20.6,86.5 -13.78,28.03 -32.57,50.45 -56.5,67.26 -23.79,16.67 -53.18,26.97 -88.17,30.91 -21.81,2.27 -74.68,3.78 -158.45,4.39l-221.63 0 0 -650.79zm131.79 108.16l0 149.98 86.05 0c51.05,0 82.86,-0.76 95.28,-2.28 22.42,-2.57 40.15,-10.3 53.02,-23.17 12.88,-12.88 19.24,-29.69 19.24,-50.6 0,-20.15 -5.6,-36.36 -16.66,-48.93 -11.06,-12.57 -27.57,-20.15 -49.38,-22.72 -13.03,-1.52 -50.45,-2.28 -112.11,-2.28l-75.44 0zm0 258.14l0 174.51 121.8 0c47.26,0 77.41,-1.36 90.13,-3.94 19.55,-3.63 35.45,-12.27 47.72,-26.05 12.27,-13.94 18.48,-32.27 18.48,-55.45 0,-19.69 -4.69,-36.2 -14.24,-49.84 -9.39,-13.63 -23.17,-23.63 -41.05,-29.84 -17.87,-6.21 -56.81,-9.39 -116.64,-9.39l-106.2 0z"/>
   <polygon id="_4" class="fil1" points="3165.14,1408.34 3165.14,757.55 3646.87,757.55 3646.87,867.53 3296.93,867.53 3296.93,1012.05 3622.33,1012.05 3622.33,1122.03 3296.93,1122.03 3296.93,1298.36 3659.59,1298.36 3659.59,1408.34 "/>
   <path id="_5" class="fil1" d="M3771.39 1408.34l0 -650.79 210.72 0c79.83,0 131.79,3.18 156.03,9.7 37.27,9.85 68.47,31.05 93.62,63.77 25.15,32.73 37.72,74.99 37.72,126.8 0,39.99 -7.27,73.47 -21.66,100.74 -14.55,27.26 -32.88,48.62 -55.14,64.23 -22.27,15.45 -45,25.75 -68.02,30.75 -31.36,6.21 -76.65,9.39 -136.04,9.39l-85.44 0 0 245.41 -131.79 0zm131.79 -540.81l0 185.42 71.66 0c51.65,0 86.04,-3.48 103.46,-10.3 17.42,-6.82 31.06,-17.42 40.9,-32.11 9.85,-14.55 14.85,-31.36 14.85,-50.75 0,-23.79 -6.97,-43.33 -20.75,-58.78 -13.94,-15.45 -31.36,-25.15 -52.72,-29.08 -15.6,-2.88 -46.96,-4.4 -94.23,-4.4l-63.17 0z"/>
   <polygon id="_6" class="fil1" points="4379.46,757.55 4502.16,757.55 4502.16,1190.81 4765.75,757.55 4896.63,757.55 4896.63,1408.34 4773.93,1408.34 4773.93,982.06 4510.34,1408.34 4379.46,1408.34 "/>
   <polygon id="_7" class="fil1" points="5177.34,1408.34 5177.34,867.53 4984.65,867.53 4984.65,757.55 5500.91,757.55 5500.91,867.53 5309.13,867.53 5309.13,1408.34 "/>
   <path id="_8" class="fil1" d="M5588.93 757.55l131.79 0 0 259.95 175.57 0c82.72,0 142.55,19.39 179.67,58.18 37.11,38.78 55.59,85.28 55.59,139.51 0,44.39 -11.21,82.11 -33.78,113.17 -22.42,31.2 -48.02,52.26 -76.95,63.32 -28.79,11.05 -70.44,16.66 -124.83,16.66l-307.06 0 0 -650.79zm131.79 540.81l127.7 0c41.36,0 70.14,-1.97 86.05,-5.91 15.91,-3.94 30.3,-13.03 42.87,-27.11 12.57,-14.09 18.78,-31.36 18.78,-51.96 0,-29.69 -10.75,-51.36 -32.11,-65.14 -21.51,-13.79 -58.02,-20.76 -109.83,-20.76l-133.46 0 0 170.88z"/>
  </g>
 </g>
</svg>
