<?xml version="1.0" encoding="UTF-8"?>
<!DOCTYPE svg PUBLIC "-//W3C//DTD SVG 1.1//EN" "http://www.w3.org/Graphics/SVG/1.1/DTD/svg11.dtd">
<!-- Creator: CorelDRAW 2021 (64-Bit) -->
<svg xmlns="http://www.w3.org/2000/svg" xml:space="preserve" width="100%" height="100%" version="1.1" style="shape-rendering:geometricPrecision; text-rendering:geometricPrecision; image-rendering:optimizeQuality; fill-rule:evenodd; clip-rule:evenodd"
viewBox="0 0 2851.05 2165.9"
 xmlns:xlink="http://www.w3.org/1999/xlink"
 xmlns:xodm="http://www.corel.com/coreldraw/odm/2003">
 <defs>
  <style type="text/css">
   <![CDATA[
    .str0 {stroke:#727271;stroke-width:20;stroke-miterlimit:22.9256}
    .fil1 {fill:#FEFEFE;fill-rule:nonzero}
    .fil0 {fill:url(#id0)}
   ]]>
  </style>
  <linearGradient id="id0" gradientUnits="userSpaceOnUse" x1="1425.52" y1="10" x2="1425.58" y2="2155.9">
   <stop offset="0" style="stop-opacity:1; stop-color:#7599C5"/>
   <stop offset="1" style="stop-opacity:1; stop-color:#031542"/>
  </linearGradient>
 </defs>
 <g id="Слой_x0020_1">
  <metadata id="CorelCorpID_0Corel-Layer"/>
  <rect class="fil0 str0" x="10" y="9.99" width="2831.05" height="2145.9" rx="415.23" ry="337.22"/>
  <path class="fil1" d="M1532.69 1408.12l-228.99 0c-0.61,-32.97 -0.92,-52.82 -0.92,-60.15 0,-73.88 12.22,-134.64 36.95,-182.58 24.42,-47.63 73.28,-101.37 146.86,-161.21 73.58,-59.54 117.55,-98.62 131.9,-117.24 22.29,-29.31 33.28,-61.68 33.28,-96.79 0,-48.55 -19.54,-90.38 -58.93,-124.88 -39.08,-34.81 -91.9,-52.21 -158.46,-52.21 -64.12,0 -117.55,18.32 -160.91,54.65 -43.05,36.64 -72.66,92.21 -88.85,167.02l-230.82 -29.32c6.72,-107.16 52.21,-197.84 136.78,-272.65 84.58,-74.8 195.72,-112.05 333.11,-112.05 144.72,0 259.83,37.86 345.32,113.27 85.49,75.42 128.24,163.04 128.24,263.5 0,55.26 -15.57,108.08 -47.02,157.54 -31.45,49.47 -98.32,116.94 -201.21,202.43 -53.13,43.97 -86.1,79.69 -98.92,106.56 -12.83,26.87 -18.63,74.8 -17.41,144.11zm-228.99 337.08l0 -250.98 228.99 0 0 250.98 -228.99 0z"/>
 </g>
</svg>
